<svg xmlns="http://www.w3.org/2000/svg" viewBox="0 0 3304.85 3304.44" style="width:28px; height:28px;">
<defs>
<clipPath id="clip-0"><path clip-rule="nonzero" d="M 116 116 L 3189 116 L 3189 3189 L 116 3189 Z M 116 116 "/></clipPath>
<clipPath id="clip-1"><path clip-rule="evenodd" d="M 116.199219 1652.199219 C 116.199219 2062.488281 275.957031 2448.21875 566.109375 2738.371094 C 856.238281 3028.5 1241.980469 3188.269531 1652.269531 3188.269531 C 2062.570312 3188.269531 2448.320312 3028.5 2738.449219 2738.371094 C 3031.46875 2445.378906 3189.949219 2057.761719 3188.609375 1651.03125 C 3143.621094 1723.660156 3090.140625 1791.109375 3028.53125 1852.730469 C 2817.929688 2063.328125 2537.96875 2179.308594 2240.148438 2179.308594 C 1942.351562 2179.308594 1662.371094 2063.328125 1451.78125 1852.730469 C 1241.179688 1642.121094 1125.191406 1362.160156 1125.191406 1064.351562 C 1125.191406 766.539062 1241.179688 486.539062 1451.78125 275.980469 C 1513.25 214.511719 1580.480469 161.128906 1652.898438 116.238281 L 1652.179688 116.179688 C 1241.890625 116.179688 856.15625 275.921875 566.109375 566.011719 C 275.957031 856.160156 116.199219 1241.898438 116.199219 1652.199219 Z M 772.675781 2531.800781 C 1001.410156 2760.570312 1305.558594 2886.511719 1629.078125 2886.511719 C 1952.589844 2886.511719 2256.71875 2760.511719 2485.488281 2531.800781 C 2508.179688 2509.101562 2544.949219 2509.101562 2567.648438 2531.800781 C 2590.339844 2554.488281 2590.339844 2591.230469 2567.648438 2613.949219 C 2316.921875 2864.660156 1983.640625 3002.730469 1629.078125 3002.730469 C 1274.53125 3002.730469 941.191406 2864.660156 690.515625 2613.949219 C 667.820312 2591.230469 667.820312 2554.488281 690.515625 2531.800781 C 713.210938 2509.101562 749.96875 2509.101562 772.675781 2531.800781 "/></clipPath>
<linearGradient id="linear-pattern-0" gradientUnits="userSpaceOnUse" x1="-0.000100981" y1="0" x2="1.000401" y2="0" gradientTransform="matrix(-0.000134218, -3070.55, 3070.55, -0.000134218, 1652.41, 3187.96)">
<stop offset="0" stop-color="rgb(89.802551%, 90.194702%, 89.802551%)"/><stop offset="0.03125" stop-color="rgb(89.64386%, 90.023804%, 89.637756%)"/><stop offset="0.0625" stop-color="rgb(89.324951%, 89.680481%, 89.306641%)"/><stop offset="0.09375" stop-color="rgb(89.006042%, 89.337158%, 88.975525%)"/><stop offset="0.125" stop-color="rgb(88.687134%, 88.993835%, 88.644409%)"/><stop offset="0.15625" stop-color="rgb(88.368225%, 88.650513%, 88.313293%)"/><stop offset="0.1875" stop-color="rgb(88.050842%, 88.30719%, 87.982178%)"/><stop offset="0.21875" stop-color="rgb(87.731934%, 87.963867%, 87.651062%)"/><stop offset="0.25" stop-color="rgb(87.413025%, 87.620544%, 87.319946%)"/><stop offset="0.28125" stop-color="rgb(87.094116%, 87.277222%, 86.988831%)"/><stop offset="0.3125" stop-color="rgb(86.775208%, 86.933899%, 86.659241%)"/><stop offset="0.34375" stop-color="rgb(86.456299%, 86.590576%, 86.328125%)"/><stop offset="0.375" stop-color="rgb(86.13739%, 86.247253%, 85.997009%)"/><stop offset="0.40625" stop-color="rgb(85.818481%, 85.903931%, 85.665894%)"/><stop offset="0.4375" stop-color="rgb(85.499573%, 85.560608%, 85.334778%)"/><stop offset="0.46875" stop-color="rgb(85.180664%, 85.217285%, 85.003662%)"/><stop offset="0.5" stop-color="rgb(84.861755%, 84.873962%, 84.672546%)"/><stop offset="0.53125" stop-color="rgb(84.542847%, 84.53064%, 84.341431%)"/><stop offset="0.5625" stop-color="rgb(84.223938%, 84.187317%, 84.010315%)"/><stop offset="0.59375" stop-color="rgb(83.906555%, 83.843994%, 83.679199%)"/><stop offset="0.625" stop-color="rgb(83.587646%, 83.500671%, 83.348083%)"/><stop offset="0.65625" stop-color="rgb(83.268738%, 83.157349%, 83.016968%)"/><stop offset="0.6875" stop-color="rgb(82.949829%, 82.814026%, 82.685852%)"/><stop offset="0.71875" stop-color="rgb(82.63092%, 82.470703%, 82.354736%)"/><stop offset="0.75" stop-color="rgb(82.312012%, 82.12738%, 82.023621%)"/><stop offset="0.78125" stop-color="rgb(81.993103%, 81.784058%, 81.692505%)"/><stop offset="0.8125" stop-color="rgb(81.674194%, 81.440735%, 81.361389%)"/><stop offset="0.84375" stop-color="rgb(81.355286%, 81.097412%, 81.030273%)"/><stop offset="0.875" stop-color="rgb(81.036377%, 80.754089%, 80.699158%)"/><stop offset="0.90625" stop-color="rgb(80.717468%, 80.410767%, 80.368042%)"/><stop offset="0.9375" stop-color="rgb(80.39856%, 80.067444%, 80.036926%)"/><stop offset="0.96875" stop-color="rgb(80.081177%, 79.724121%, 79.705811%)"/><stop offset="1" stop-color="rgb(79.763794%, 79.38385%, 79.377747%)"/></linearGradient>
</defs>
<path fill-rule="evenodd" fill="rgb(0%, 0%, 0.784302%)" d="M 1652.179688 116.179688 C 1241.890625 116.179688 856.15625 275.921875 566.109375 566.011719 C 275.957031 856.160156 116.199219 1241.898438 116.199219 1652.199219 C 116.199219 2062.488281 275.957031 2448.21875 566.109375 2738.371094 C 856.238281 3028.5 1241.980469 3188.269531 1652.269531 3188.269531 C 2062.570312 3188.269531 2448.320312 3028.5 2738.449219 2738.371094 C 3031.46875 2445.378906 3189.949219 2057.761719 3188.609375 1651.03125 C 3143.621094 1723.660156 3090.140625 1791.109375 3028.53125 1852.730469 C 2817.929688 2063.328125 2537.96875 2179.308594 2240.148438 2179.308594 C 1942.351562 2179.308594 1662.371094 2063.328125 1451.78125 1852.730469 C 1241.179688 1642.121094 1125.191406 1362.160156 1125.191406 1064.351562 C 1125.191406 766.539062 1241.179688 486.539062 1451.78125 275.980469 C 1513.25 214.511719 1580.480469 161.128906 1652.898438 116.238281 C 1652.648438 116.179688 1652.421875 116.179688 1652.179688 116.179688 Z M 1652.261719 3304.441406 C 1210.921875 3304.441406 796.011719 3132.558594 483.953125 2820.5 C 171.878906 2508.449219 0 2093.53125 0 1652.171875 C 0 1210.820312 171.867188 795.921875 483.953125 483.851562 C 795.984375 171.851562 1210.851562 0 1652.179688 0 C 1728.308594 0 1805.058594 5.308594 1880.421875 15.75 C 1906.761719 19.398438 1927.300781 40.511719 1930.191406 66.988281 C 1933.078125 93.480469 1917.578125 118.519531 1892.628906 127.738281 C 1757.339844 177.859375 1636.660156 255.328125 1533.941406 358.089844 C 1345.269531 546.738281 1241.410156 797.53125 1241.410156 1064.320312 C 1241.410156 1331.128906 1345.28125 1581.941406 1533.941406 1770.570312 C 1722.558594 1959.238281 1973.390625 2063.121094 2240.148438 2063.121094 C 2506.921875 2063.121094 2757.730469 1959.238281 2946.390625 1770.570312 C 3049.121094 1667.851562 3126.628906 1547.160156 3176.738281 1411.851562 C 3185.988281 1386.898438 3210.910156 1371.5 3237.46875 1374.289062 C 3263.941406 1377.171875 3285.109375 1397.699219 3288.738281 1424.070312 C 3360.601562 1942.21875 3189.980469 2451.191406 2820.640625 2820.53125 C 2508.5 3132.558594 2093.609375 3304.441406 1652.261719 3304.441406 "/>
<path fill-rule="evenodd" fill="rgb(0%, 0%, 0.784302%)" d="M 1629.078125 3002.730469 C 1274.53125 3002.730469 941.191406 2864.660156 690.515625 2613.949219 C 667.820312 2591.230469 667.820312 2554.488281 690.515625 2531.800781 C 713.210938 2509.101562 749.96875 2509.101562 772.675781 2531.800781 C 1001.410156 2760.570312 1305.558594 2886.511719 1629.078125 2886.511719 C 1952.589844 2886.511719 2256.71875 2760.511719 2485.488281 2531.800781 C 2508.179688 2509.101562 2544.949219 2509.101562 2567.648438 2531.800781 C 2590.339844 2554.488281 2590.339844 2591.230469 2567.648438 2613.949219 C 2316.921875 2864.660156 1983.640625 3002.730469 1629.078125 3002.730469 "/>
<g clip-path="url(#clip-0)"><g clip-path="url(#clip-1)"><path fill-rule="nonzero" fill="url(#linear-pattern-0)" d="M 116.199219 3188.269531 L 3189.949219 3188.269531 L 3189.949219 116.179688 L 116.199219 116.179688 Z M 116.199219 3188.269531 "/></g></g>
</svg>