<svg xmlns="http://www.w3.org/2000/svg" viewBox="0 0 2886 2872" style="width:28px; height:28px;">
<defs>
<clipPath id="clip-0-sun"><path d="M 416.398438 861.828125 L 415.0625 853.238281 C 413.410156 831.519531 404.132812 805.019531 387.238281 773.71875 C 256.101562 613.371094 191.25 517.929688 192.6875 487.390625 C 167.007812 422.039062 170.550781 313.738281 203.320312 162.5 C 281.894531 288.328125 350.515625 365.179688 409.175781 393.058594 C 426.335938 402.191406 451.207031 408.910156 483.789062 413.210938 C 613.597656 405.519531 724.617188 412.851562 816.839844 435.230469 C 832.136719 284.828125 924.019531 140.570312 1092.480469 2.46875 C 1051.191406 105.789062 1036.851562 174.269531 1049.46875 207.878906 C 1056.160156 244.71875 1099.460938 281.929688 1179.378906 319.519531 C 1242 222.820312 1307.769531 157.359375 1376.691406 123.109375 C 1438.890625 86.351562 1569.789062 45.308594 1769.398438 0 C 1699.828125 82.238281 1665.601562 144.910156 1666.699219 188.011719 C 1668.429688 203.261719 1673.578125 217.289062 1682.171875 230.121094 L 1751.53125 320.640625 C 1763.359375 342.070312 1774.171875 370.308594 1783.960938 405.359375 C 1823.308594 352.589844 1868.179688 321.128906 1918.589844 310.960938 C 1913.28125 303.589844 1985.449219 307.410156 2135.121094 322.449219 C 2164.558594 323.019531 2191.519531 318.480469 2216.011719 308.828125 C 2269.960938 284.738281 2321.070312 228.78125 2369.328125 140.949219 C 2385.539062 226.019531 2392.460938 292.660156 2390.089844 340.871094 C 2394.589844 356.160156 2376.730469 419.160156 2336.519531 529.871094 C 2331.628906 552.21875 2330.96875 589.308594 2334.53125 641.109375 C 2423.558594 647.75 2487.71875 661.441406 2527.011719 682.199219 C 2561.28125 697.191406 2621.078125 741.941406 2706.429688 816.460938 C 2726.058594 830.699219 2747.589844 843.789062 2771.019531 855.730469 C 2673.5 840.761719 2609.820312 844.351562 2580.011719 866.5 C 2548.449219 883.261719 2523.429688 937.859375 2504.929688 1030.269531 C 2569.089844 1058.898438 2617.378906 1087.710938 2649.789062 1116.699219 C 2663.910156 1129.871094 2676.261719 1144.238281 2686.820312 1159.820312 L 2760.429688 1275.429688 C 2773.679688 1291.648438 2797.78125 1309.171875 2832.75 1327.980469 L 2756.988281 1319.96875 L 2629.429688 1266.660156 C 2605.710938 1259.871094 2588.980469 1258.601562 2579.25 1262.828125 C 2561.980469 1265.371094 2538.75 1283.808594 2509.589844 1318.148438 C 2514.308594 1352.878906 2520.820312 1380 2529.109375 1399.5 C 2567.429688 1473.488281 2629.851562 1525.230469 2716.378906 1554.710938 C 2766.390625 1576.800781 2822.769531 1556.019531 2885.519531 1492.371094 C 2858.878906 1578.148438 2830.570312 1635.5 2800.609375 1664.429688 C 2786.96875 1676.480469 2771.75 1684.21875 2754.980469 1687.648438 C 2677.609375 1693.21875 2637.511719 1699.679688 2634.691406 1707.039062 C 2606.320312 1723.78125 2580.820312 1759.691406 2558.171875 1814.769531 C 2646.378906 1862.089844 2702.191406 1905.519531 2725.609375 1945.050781 C 2752.71875 1981.75 2772.691406 2052.667969 2785.519531 2157.808594 C 2730.851562 2126.984375 2685.300781 2112.527344 2648.878906 2114.425781 C 2640.410156 2114.589844 2627.808594 2117.882812 2611.078125 2124.308594 L 2495.019531 2181.152344 C 2473.660156 2189.144531 2433.128906 2192.539062 2373.429688 2191.335938 C 2365.808594 2250.777344 2353.660156 2297.503906 2336.980469 2331.507812 L 2244.558594 2464.136719 C 2207.25 2595.519531 2289.949219 2630.308594 2492.648438 2568.5 C 2446.96875 2620.179688 2413.390625 2651.648438 2391.921875 2662.910156 C 2221.660156 2750.996094 2005.128906 2699.953125 1742.300781 2509.78125 C 1696.238281 2557.398438 1659.371094 2587.167969 1631.699219 2599.09375 C 1624.679688 2606.550781 1574.558594 2621.011719 1481.320312 2642.476562 C 1462.898438 2648.832031 1448.570312 2658.5 1438.339844 2671.480469 C 1415.390625 2695.445312 1417.828125 2761.992188 1445.660156 2871.125 C 1361.53125 2818.285156 1305.671875 2767.394531 1278.089844 2718.457031 C 1247.921875 2673.535156 1217.140625 2583.636719 1185.769531 2448.757812 C 1161.691406 2477.375 1137.539062 2499.734375 1113.320312 2515.832031 L 959.0625 2588.941406 C 939.777344 2600.078125 923.855469 2614.128906 911.289062 2631.089844 C 884.144531 2663.246094 875.222656 2736.589844 884.527344 2851.125 C 784.316406 2740.980469 722.019531 2656.15625 697.628906 2596.644531 C 687.984375 2570.566406 684.703125 2547.023438 687.789062 2526.015625 C 686.445312 2517.964844 696.199219 2485.636719 717.054688 2429.035156 C 720.992188 2408.242188 721.914062 2395.785156 719.828125 2391.664062 C 713.113281 2354.324219 681.90625 2308.488281 626.199219 2254.160156 C 574.957031 2260.183594 492.429688 2244.21875 378.621094 2206.253906 C 361.519531 2203.558594 344.195312 2204.160156 326.644531 2208.066406 C 279.332031 2220.453125 224.753906 2274.25 162.910156 2369.457031 C 159.070312 2239.574219 166.882812 2146.617188 186.34375 2090.582031 C 195.597656 2066.488281 207.941406 2047.386719 223.367188 2033.289062 L 345.894531 1950.277344 C 362.171875 1934.550781 375.410156 1900.964844 385.605469 1849.519531 C 307.542969 1750.238281 238.882812 1689.371094 179.617188 1666.898438 C 165.054688 1663.441406 152.304688 1664.25 141.367188 1669.328125 L 0 1740.320312 C 20.625 1601.75 52.3125 1504.28125 95.054688 1447.910156 C 132.011719 1389.25 219.875 1314.160156 358.648438 1222.648438 C 350.316406 1117.898438 325.160156 1055.929688 283.179688 1036.761719 C 241.835938 1011.359375 151.171875 1006.921875 11.1875 1023.410156 C 126.382812 937.089844 205.875 886.179688 249.667969 870.699219 C 295.710938 850.289062 351.289062 847.328125 416.398438 861.828125 "/></clipPath>
<radialGradient id="radial-pattern-0" gradientUnits="userSpaceOnUse" cx="259.485" cy="544.3305" r="1641.15" gradientTransform="matrix(1, 0, 0, 1, 1181.29, 874.55)"><stop offset="0" stop-color="rgb(99.606323%, 75.559998%, 2.333069%)"/><stop offset="0.25" stop-color="rgb(99.606323%, 71.476746%, 1.73645%)"/><stop offset="0.5" stop-color="rgb(99.606323%, 67.520142%, 1.156616%)"/><stop offset="0.75" stop-color="rgb(99.606323%, 63.500977%, 0.569153%)"/><stop offset="1" stop-color="rgb(99.606323%, 59.606934%, 0%)"/></radialGradient>
<clipPath id="clip-2-sun"><path d="M 465 458 L 2417 458 L 2417 2409 L 465 2409 Z M 465 458 "/></clipPath>
<clipPath id="clip-3-sun"><path d="M 2416.308594 1434.269531 L 2407.410156 1566.640625 C 2365.199219 1833.308594 2241.710938 2046.59375 2036.929688 2206.476562 C 1830.730469 2366.234375 1587.921875 2431.015625 1308.5 2400.820312 C 1041.820312 2358.617188 828.539062 2235.125 668.652344 2030.34375 C 617.425781 1964.148438 575.226562 1892.023438 542.0625 1813.960938 L 500.25 1693.589844 C 477.277344 1610.761719 465.664062 1524.320312 465.40625 1434.269531 C 472.378906 1157.941406 567.613281 928.019531 751.109375 744.53125 C 934.605469 561.03125 1164.519531 465.800781 1440.859375 458.820312 C 1717.191406 465.800781 1947.109375 561.03125 2130.609375 744.53125 C 2314.109375 928.019531 2409.339844 1157.941406 2416.308594 1434.269531 "/></clipPath>
<radialGradient id="radial-pattern-1" gradientUnits="userSpaceOnUse" cx="259.40025" cy="577.917" r="975.795" gradientTransform="matrix(1, 0, 0, 1, 1181.29, 874.55)"><stop offset="0" stop-color="rgb(99.606323%, 92.027283%, 22.584534%)"/><stop offset="0.25" stop-color="rgb(99.606323%, 87.940979%, 17.526245%)"/><stop offset="0.5" stop-color="rgb(99.606323%, 83.984375%, 12.626648%)"/><stop offset="0.75" stop-color="rgb(99.606323%, 80.059814%, 7.76825%)"/><stop offset="1" stop-color="rgb(99.606323%, 75.68512%, 2.352905%)"/></radialGradient>
</defs>
<g clip-path="url(#clip-0-sun)"><g clip-path="url(#clip-0-sun)"><path fill-rule="nonzero" fill="url(#radial-pattern-0)" d="M 0 0 L 0 2871.125 L 2885.519531 2871.125 L 2885.519531 0 Z M 0 0 "/></g></g>
<g clip-path="url(#clip-2-sun)"><g clip-path="url(#clip-3-sun)"><g clip-path="url(#clip-3-sun)"><path fill-rule="nonzero" fill="url(#radial-pattern-1)" d="M 465.40625 458.820312 L 465.40625 2431.015625 L 2416.308594 2431.015625 L 2416.308594 458.820312 Z M 465.40625 458.820312 "/></g></g></g>
</svg>