<?xml version="1.0" encoding="iso-8859-1"?>
<!-- Uploaded to: SVG Repo, www.svgrepo.com, Generator: SVG Repo Mixer Tools -->
<svg fill="#000000" height="800px" width="800px" version="1.1" id="Layer_1" xmlns="http://www.w3.org/2000/svg" xmlns:xlink="http://www.w3.org/1999/xlink" 
	 viewBox="0 0 512 512" xml:space="preserve">
<g>
	<g>
		<path d="M21.787,0c-4.512,0-8.17,3.658-8.17,8.17v462.979c0,22.526,18.326,40.851,40.851,40.851
			c22.525,0,40.851-18.325,40.851-40.851V330.715h35.404c4.512,0,8.17-3.658,8.17-8.17V117.106C138.894,52.533,86.36,0,21.787,0z
			 M78.979,471.149c0,13.516-10.995,24.511-24.511,24.511c-13.516,0-24.511-10.995-24.511-24.511V363.393h49.021V471.149z
			 M78.979,347.052H29.957v-16.337h49.021V347.052z M122.553,314.375H29.957V16.668c51.757,4.172,92.596,47.626,92.596,100.438
			V314.375z"/>
	</g>
</g>
<g>
	<g>
		<path d="M57.981,40.838c-4.077-1.94-8.949-0.21-10.89,3.863c-1.94,4.074-0.21,8.949,3.863,10.89
			c23.642,11.259,38.919,35.405,38.919,61.515v172.758c0,4.512,3.658,8.17,8.17,8.17c4.512,0,8.17-3.658,8.17-8.17V117.106
			C106.213,84.729,87.281,54.792,57.981,40.838z"/>
	</g>
</g>
<g>
	<g>
		<path d="M351.864,0H196.085c-22.526,0-40.851,18.325-40.851,40.851v281.621c0,0.024,0,0.049,0,0.073s0,0.049,0,0.073v32.594
			c0,0.021,0,115.936,0,115.936c0,22.526,18.325,40.851,40.851,40.851c22.525,0,40.851-18.325,40.851-40.851V330.715h114.928
			c4.512,0,8.17-3.658,8.17-8.17V8.17C360.034,3.658,356.376,0,351.864,0z M220.596,471.149c0,13.516-10.995,24.511-24.511,24.511
			c-13.516,0-24.511-10.995-24.511-24.511V363.393h49.021V471.149z M220.596,347.052h-49.021v-16.337h49.021V347.052z
			 M343.694,314.375H171.574V40.851c0-13.516,10.995-24.511,24.511-24.511h147.608V314.375z"/>
	</g>
</g>
<g>
	<g>
		<path d="M286.502,32.681c-4.512,0-8.17,3.658-8.17,8.17v249.013c0,4.513,3.658,8.17,8.17,8.17s8.17-3.658,8.17-8.17V40.851
			C294.672,36.339,291.014,32.681,286.502,32.681z"/>
	</g>
</g>
<g>
	<g>
		<path d="M449.906,31.137c-4.512,0-8.17,3.658-8.17,8.17v250.553c0,4.512,3.658,8.17,8.17,8.17s8.17-3.658,8.17-8.17V39.307
			C458.077,34.795,454.419,31.137,449.906,31.137z"/>
	</g>
</g>
<g>
	<g>
		<path d="M492.641,61.731c3.732-6.281,5.742-13.505,5.742-20.88C498.383,18.325,480.058,0,457.532,0h-40.306
			c-22.526,0-40.851,18.325-40.851,40.851v430.298c0,22.526,18.325,40.851,40.851,40.851s40.851-18.325,40.851-40.851V332.252
			c22.276-0.292,40.306-18.504,40.306-40.848c0-7.374-2.01-14.599-5.742-20.88c3.732-6.281,5.742-13.506,5.742-20.88
			c0-7.374-2.01-14.599-5.742-20.88c3.732-6.281,5.742-13.506,5.742-20.88c0-7.374-2.01-14.599-5.742-20.88
			c3.732-6.281,5.742-13.505,5.742-20.88c0-7.375-2.01-14.599-5.742-20.88c3.732-6.281,5.742-13.506,5.742-20.88
			s-2.01-14.599-5.742-20.88c3.732-6.281,5.742-13.506,5.742-20.88C498.383,75.236,496.373,68.012,492.641,61.731z M441.736,471.149
			c0,13.516-10.995,24.511-24.511,24.511c-13.516,0-24.511-10.995-24.511-24.511V363.393h49.021V471.149z M441.736,347.052h-49.021
			v-14.795l49.021-0.002V347.052z M476.389,66.953c3.646,4.385,5.654,9.945,5.654,15.656c0,5.71-2.008,11.271-5.654,15.656
			c-2.518,3.027-2.518,7.42,0,10.447c3.646,4.385,5.654,9.945,5.654,15.656c0,5.712-2.008,11.272-5.654,15.656
			c-2.518,3.027-2.518,7.42,0,10.447c3.646,4.385,5.654,9.944,5.654,15.655c0,5.711-2.008,11.271-5.654,15.655
			c-2.518,3.027-2.518,7.421,0,10.447c3.646,4.385,5.654,9.945,5.654,15.656c0,5.71-2.008,11.271-5.654,15.656
			c-2.518,3.027-2.518,7.42,0,10.447c3.646,4.385,5.654,9.945,5.654,15.656c0,5.711-2.008,11.272-5.654,15.656
			c-2.518,3.027-2.518,7.42,0,10.447c3.646,4.385,5.654,9.944,5.654,15.655c0,13.516-10.995,24.511-24.511,24.511l-64.817,0.003
			V40.851c0-13.516,10.995-24.511,24.511-24.511h40.306c13.516,0,24.511,10.995,24.511,24.511c0,5.712-2.008,11.271-5.654,15.655
			C473.871,59.534,473.871,63.927,476.389,66.953z"/>
	</g>
</g>
</svg>