<?xml version="1.0" encoding="iso-8859-1"?>
<!-- Uploaded to: SVG Repo, www.svgrepo.com, Generator: SVG Repo Mixer Tools -->
<svg version="1.1" id="Layer_1" xmlns="http://www.w3.org/2000/svg" xmlns:xlink="http://www.w3.org/1999/xlink" 
	 viewBox="0 0 512 512" xml:space="preserve">
<g>
	<polygon style="fill:#6FB0B6;" points="180.156,268.8 194.116,192 256,192 256,268.8 	"/>
	<polygon style="fill:#6FB0B6;" points="256,268.8 256,192 317.884,192 331.844,268.8 	"/>
</g>
<rect x="38.4" y="268.8" style="fill:#9A8984;" width="435.2" height="204.8"/>
<path style="fill:#FFE7E5;" d="M256,140.8c-35.294,0-64-28.706-64-64s28.706-64,64-64s64,28.706,64,64S291.294,140.8,256,140.8z"/>
<g>
	<path style="fill:#573A32;" d="M256,153.6c42.351,0,76.8-34.449,76.8-76.8S298.351,0,256,0s-76.8,34.449-76.8,76.8
		S213.649,153.6,256,153.6z M256,25.6c28.279,0,51.2,22.921,51.2,51.2S284.279,128,256,128c-28.279,0-51.2-22.921-51.2-51.2
		S227.721,25.6,256,25.6z"/>
	<path style="fill:#573A32;" d="M499.2,256H342.528l-10.138-55.774c-2.219-12.177-12.817-21.026-25.19-21.026H204.8
		c-12.373,0-22.972,8.849-25.19,21.026L169.472,256H12.8C5.726,256,0,261.726,0,268.8c0,7.074,5.726,12.8,12.8,12.8h12.8V512h25.6
		v-25.6h409.6V512h25.6V281.6h12.8c7.074,0,12.8-5.726,12.8-12.8S506.274,256,499.2,256z M268.8,204.8h38.4l9.31,51.2H268.8V204.8z
		 M204.8,204.8h38.4V256h-47.71L204.8,204.8z M460.8,460.8H51.2V281.6h409.6V460.8z"/>
</g>
</svg>