<?xml version="1.0" encoding="iso-8859-1"?>
<!-- Uploaded to: SVG Repo, www.svgrepo.com, Generator: SVG Repo Mixer Tools -->
<svg version="1.1" id="Layer_1" xmlns="http://www.w3.org/2000/svg" xmlns:xlink="http://www.w3.org/1999/xlink" 
	 viewBox="0 0 512 512" xml:space="preserve">
<path style="fill:#EB6836;" d="M401.986,269.391h-56.714l-37.809,56.189l-37.809-56.189h-56.714
	c-21.717,0-39.385,17.667-39.385,39.385v195.348c0,4.351,3.527,7.877,7.877,7.877h252.062c4.35,0,7.877-3.526,7.877-7.877V308.775
	C441.37,287.058,423.703,269.391,401.986,269.391z"/>
<path style="fill:#C74B38;" d="M212.939,269.391c-21.717,0-39.385,17.667-39.385,39.385v195.348c0,4.351,3.527,7.877,7.877,7.877
	h172.081L226.011,269.391H212.939z"/>
<g>
	<rect x="173.555" y="338.708" style="fill:#F2F2F2;" width="267.815" height="34.658"/>
	<rect x="173.555" y="411.175" style="fill:#F2F2F2;" width="267.815" height="33.608"/>
</g>
<g>
	<polygon style="fill:#E5E5E5;" points="173.555,338.708 173.555,373.366 280.654,373.366 262.439,338.708 	"/>
	<polygon style="fill:#E5E5E5;" points="173.555,411.175 173.555,444.784 318.188,444.784 300.525,411.175 	"/>
</g>
<path style="fill:#FEE7BE;" d="M425.616,151.237c-0.197,0-0.392,0.01-0.588,0.015c-1.942-62.883-53.694-113.442-117.041-113.442
	S192.889,88.369,190.947,151.252c-0.196-0.004-0.391-0.015-0.588-0.015c-15.926,0-28.882,12.956-28.882,28.882
	s12.956,28.882,28.882,28.882c4.427,0,8.623-1.004,12.375-2.792c19.051,38.931,59.071,65.807,105.254,65.807
	s86.203-26.876,105.254-65.807c3.754,1.788,7.949,2.792,12.375,2.792c15.926,0,28.882-12.956,28.882-28.882
	S441.542,151.237,425.616,151.237z"/>
<path style="fill:#B2B2B2;" d="M307.988,230.006c-11.155,0-19.073-5.042-22.799-8.047c-3.386-2.731-3.917-7.689-1.187-11.076
	c2.732-3.387,7.689-3.919,11.076-1.187c1.699,1.37,6.357,4.556,12.91,4.556c2.182,0,7.81-0.444,12.91-4.557
	c3.387-2.73,8.346-2.198,11.076,1.188c2.731,3.387,2.199,8.345-1.187,11.077C322.103,228.961,312.776,230.006,307.988,230.006z"/>
<g>
	<path style="fill:#999999;" d="M356.299,190.096h-5.251c-4.35,0-7.877-3.526-7.877-7.877c0-4.351,3.527-7.877,7.877-7.877h5.251
		c4.35,0,7.877,3.526,7.877,7.877C364.176,186.571,360.65,190.096,356.299,190.096z"/>
	<path style="fill:#999999;" d="M264.927,190.096h-5.251c-4.35,0-7.877-3.526-7.877-7.877c0-4.351,3.527-7.877,7.877-7.877h5.251
		c4.35,0,7.877,3.526,7.877,7.877C272.804,186.571,269.277,190.096,264.927,190.096z"/>
</g>
<path style="fill:#666666;" d="M305.714,37.831c-64.357,1.227-116.032,55.013-114.808,119.37c0.458,24.051,8.129,46.965,22.26,66.43
	c1.838,2.532,4.912,3.997,7.99,3.436c3.809-0.693,6.486-3.988,6.486-7.754v-69.131l78.52,18.695c1.2,0.286,2.449,0.286,3.65,0
	l78.52-18.695v71.583c1.867,3.77,4.929,5.426,7.876,5.426c2.465,0,4.848-1.161,6.359-3.229
	c14.735-20.151,22.524-44.028,22.524-69.049C425.091,89.585,371.321,36.58,305.714,37.831z"/>
<path style="fill:#F7D04A;" d="M305.887,16.804c-64.571,0-117.104,52.533-117.104,117.104c0,4.35,3.527,7.877,7.877,7.877h218.453
	c4.35,0,7.877-3.527,7.877-7.877C422.991,69.337,370.458,16.804,305.887,16.804z"/>
<g>
	<path style="fill:#F3B41B;" d="M215.565,133.908c0-60.043,45.426-109.667,103.713-116.334c-4.396-0.502-8.862-0.77-13.391-0.77
		c-64.571,0-117.104,52.533-117.104,117.104c0,4.35,3.527,7.877,7.877,7.877h26.782
		C219.092,141.785,215.565,138.258,215.565,133.908z"/>
	<path style="fill:#F3B41B;" d="M326.892,0h-42.01c-4.35,0-7.877,3.527-7.877,7.877v113.428c0,4.35,3.527,7.877,7.877,7.877h42.01
		c4.35,0,7.877-3.527,7.877-7.877V7.877C334.769,3.527,331.242,0,326.892,0z"/>
</g>
<rect x="287.508" style="fill:#F7D04A;" width="36.759" height="118.679"/>
<path style="fill:#F3B41B;" d="M429.245,136.294c-0.841-3.553-4.014-6.062-7.665-6.062H190.195c-3.652,0-6.824,2.509-7.665,6.062
	c-0.841,3.553,0.87,7.218,4.133,8.856c37.222,18.674,77.335,28.143,119.224,28.143s82.002-9.469,119.225-28.143
	C428.375,143.512,430.085,139.847,429.245,136.294z"/>
<path style="fill:#F7D04A;" d="M436.119,113.428H175.655c-4.35,0-7.877,3.527-7.877,7.877v21.005c0,4.35,3.527,7.877,7.877,7.877
	h260.464c4.35,0,7.877-3.527,7.877-7.877v-21.005C443.996,116.954,440.469,113.428,436.119,113.428z"/>
<path style="fill:#F2F2F2;" d="M352.317,273.745c-1.334-2.668-4.061-4.354-7.045-4.354h-75.618c-2.984,0-5.711,1.686-7.045,4.354
	c-1.335,2.669-1.047,5.863,0.744,8.249l37.809,50.412c3.099,4.133,9.504,4.133,12.603,0l37.809-50.412
	C353.364,279.608,353.652,276.414,352.317,273.745z"/>
<path style="fill:#CCCCCC;" d="M469.607,222.094c-2.403-0.807-5.048-0.409-7.105,1.072c-2.057,1.48-3.278,3.861-3.278,6.395v42.233
	h-13.653v-42.233c0-2.534-1.22-4.915-3.278-6.395c-2.057-1.48-4.702-1.88-7.105-1.072c-22.059,7.401-36.879,28.007-36.879,51.276
	c0,21.88,12.864,41.153,32.558,49.639v113.898c0,4.351,3.527,7.877,7.877,7.877h27.307c4.35,0,7.877-3.526,7.877-7.877V323.008
	c19.694-8.486,32.558-27.759,32.558-49.639C506.486,250.101,491.666,229.495,469.607,222.094z"/>
<path style="fill:#F7D04A;" d="M482.855,338.708h-54.613c-13.031,0-23.631,10.601-23.631,23.631v58.814
	c0,13.029,10.6,23.631,23.631,23.631h54.613c13.031,0,23.631-10.601,23.631-23.631v-58.814
	C506.486,349.309,495.886,338.708,482.855,338.708z"/>
<g>
	<path style="fill:#F3B41B;" d="M445.571,371.791c0-4.351-3.527-7.877-7.877-7.877h-33.083v15.754h33.083
		C442.044,379.668,445.571,376.142,445.571,371.791z"/>
	<path style="fill:#F3B41B;" d="M445.571,392.796c0-4.351-3.527-7.877-7.877-7.877h-33.083v15.754h33.083
		C442.044,400.673,445.571,397.147,445.571,392.796z"/>
	<path style="fill:#F3B41B;" d="M445.571,413.801c0-4.351-3.527-7.877-7.877-7.877h-33.083v15.229c0,0.176,0.009,0.35,0.014,0.525
		h33.069C442.044,421.678,445.571,418.152,445.571,413.801z"/>
</g>
<path style="fill:#F2F2F2;" d="M231.844,269.391H13.391c-4.35,0-7.877,3.526-7.877,7.877v180.644c0,4.351,3.527,7.877,7.877,7.877
	h218.453c4.35,0,7.877-3.526,7.877-7.877V277.268C239.721,272.916,236.194,269.391,231.844,269.391z"/>
<path style="fill:#E5E5E5;" d="M13.391,269.391c-4.35,0-7.877,3.526-7.877,7.877v180.644c0,4.351,3.527,7.877,7.877,7.877h151.456
	L40.108,269.391H13.391z"/>
<path style="fill:#666666;" d="M105.813,440.583c-4.35,0-7.877-3.526-7.877-7.877v-29.407c0-4.351,3.527-7.877,7.877-7.877h59.339
	v-24.156H40.697c-4.35,0-7.877-3.526-7.877-7.877V327.68c0-4.351,3.527-7.877,7.877-7.877h163.84c4.35,0,7.877,3.526,7.877,7.877
	s-3.527,7.877-7.877,7.877H48.574v19.955H173.03c4.35,0,7.877,3.526,7.877,7.877v39.91c0,4.351-3.527,7.877-7.877,7.877H113.69
	v21.53C113.69,437.057,110.163,440.583,105.813,440.583z"/>
<path style="fill:#62C9CC;" d="M105.813,176.968c-32.141,0-58.289,26.148-58.289,58.289c0,29.837,46.895,86.866,52.243,93.27
	c3.101,3.714,8.992,3.714,12.094,0c5.347-6.404,52.243-63.432,52.243-93.27C164.103,203.116,137.954,176.968,105.813,176.968z"/>
<path style="fill:#50A9A9;" d="M111.845,323.801c-5.347-6.404-52.243-63.432-52.243-93.27c0-22.375,12.679-41.834,31.223-51.6
	c-24.899,6.632-43.301,29.367-43.301,56.326c0,29.837,46.895,86.866,52.243,93.27c3.101,3.714,8.992,3.714,12.094,0
	c0.472-0.565,1.274-1.532,2.333-2.834C113.306,325.222,112.503,324.59,111.845,323.801z"/>
<path style="fill:#F7D04A;" d="M105.813,204.275c-17.083,0-30.983,13.898-30.983,30.983s13.899,30.983,30.983,30.983
	s30.983-13.898,30.983-30.983S122.897,204.275,105.813,204.275z"/>
<path style="fill:#F3B41B;" d="M105.813,212.152c-12.741,0-23.106,10.365-23.106,23.106c0,12.741,10.365,23.106,23.106,23.106
	s23.106-10.365,23.106-23.106C128.919,222.517,118.554,212.152,105.813,212.152z"/>
</svg>